<svg width="16" height="16" viewBox="0 0 16 16" fill="none" xmlns="http://www.w3.org/2000/svg">
    <g id="Icons/equalizer-line">
        <path id="Vector"
              d="M4.11348 12C4.38803 11.2232 5.12886 10.6667 5.99967 10.6667C6.87047 10.6667 7.61134 11.2232 7.88587 12L14.6663 12V13.3333L7.88587 13.3333C7.61134 14.1101 6.87047 14.6667 5.99967 14.6667C5.12886 14.6667 4.38803 14.1101 4.11348 13.3333H1.33301L1.33301 12H4.11348ZM8.11347 7.33333C8.38801 6.55654 9.12887 6 9.99967 6C10.8705 6 11.6113 6.55654 11.8859 7.33333L14.6663 7.33333L14.6663 8.66667L11.8859 8.66667C11.6113 9.44347 10.8705 10 9.99967 10C9.12887 10 8.38801 9.44347 8.11347 8.66667H1.33301L1.33301 7.33333L8.11347 7.33333ZM4.11348 2.66667C4.38803 1.88987 5.12886 1.33333 5.99967 1.33333C6.87047 1.33333 7.61134 1.88987 7.88587 2.66667L14.6663 2.66667V4L7.88587 4C7.61134 4.77679 6.87047 5.33333 5.99967 5.33333C5.12886 5.33333 4.38803 4.77679 4.11348 4L1.33301 4V2.66667L4.11348 2.66667ZM5.99967 4C6.36786 4 6.66634 3.70152 6.66634 3.33333C6.66634 2.96515 6.36786 2.66667 5.99967 2.66667C5.63149 2.66667 5.33301 2.96515 5.33301 3.33333C5.33301 3.70152 5.63149 4 5.99967 4ZM9.99967 8.66667C10.3679 8.66667 10.6663 8.3682 10.6663 8C10.6663 7.6318 10.3679 7.33333 9.99967 7.33333C9.63147 7.33333 9.33301 7.6318 9.33301 8C9.33301 8.3682 9.63147 8.66667 9.99967 8.66667ZM5.99967 13.3333C6.36786 13.3333 6.66634 13.0349 6.66634 12.6667C6.66634 12.2985 6.36786 12 5.99967 12C5.63149 12 5.33301 12.2985 5.33301 12.6667C5.33301 13.0349 5.63149 13.3333 5.99967 13.3333Z"
              fill="#0E0E0E"/>
    </g>
</svg>
